<mxfile host="app.diagrams.net" modified="2023-09-25T05:24:05.245Z" agent="Mozilla/5.0 (Macintosh; Intel Mac OS X 10_15_7) AppleWebKit/537.36 (KHTML, like Gecko) Chrome/116.0.0.0 Safari/537.36" version="21.8.0" etag="iw3kIwm8y7Jhl-2VMwyG" type="github">
  <diagram name="第 1 页" id="4d-saxW9QtvG3Liu-2Xx">
    <mxGraphModel>
      <root>
        <mxCell id="0" />
        <mxCell id="1" parent="0" />
      </root>
    </mxGraphModel>
  </diagram>
</mxfile>
